<?xml version="1.0" encoding="utf-8"?>
<svg xmlns="http://www.w3.org/2000/svg" viewBox="0 0 512 512">
  <g>
    <g>
      <path style="fill: rgb(255, 255, 255); stroke: rgb(255, 255, 255);" d="M 69.756 19.157 C 71.785 17.843 68.011 93.802 95.676 115.351 C 124.355 137.689 141.777 137.686 144.197 225.714 C 146.05 293.16 198.199 334.964 198.199 334.964 C 198.199 334.964 138.325 284.791 129.695 221.239 C 116.136 121.386 98.671 161.915 78.27 119.742 C 57.093 75.965 69.756 19.157 69.756 19.157 Z"/>
      <path style="fill: rgb(255, 255, 255); stroke: rgb(255, 255, 255);" d="M 97.446 180.844 C 97.446 180.844 127.381 218.412 120.4 254.601 C 103.661 341.374 171.322 364.223 192.165 391.717 C 223.883 433.556 240.473 508.415 240.473 508.415 C 240.473 508.415 199.904 409.257 163.994 388.248 C 133.951 370.671 93.981 326.338 106.05 265.439 C 113.071 230.012 97.446 180.844 97.446 180.844 Z"/>
      <path style="fill: rgb(255, 255, 255); stroke: rgb(255, 255, 255);" d="M 255.434 275.183 C 255.434 275.183 227.907 291.851 224.651 302.786 C 220.291 317.431 221.178 332.845 212.84 345.179 C 205.564 355.943 186.767 370.321 186.767 370.321 C 186.767 370.321 206.793 363.172 214.655 354.414 C 227.815 339.754 226.128 321.965 231.519 304.93 C 234.863 294.363 255.434 275.183 255.434 275.183 Z"/>
      <path style="fill: rgb(255, 255, 255); stroke: rgb(255, 255, 255);" d="M 57.584 40.136 C 57.584 40.136 59.661 112.632 62.457 136.953 C 65.699 165.144 87.624 193.85 93.654 214.279 C 99.911 235.476 85.18 326.579 85.18 326.579 C 85.18 326.579 90.354 234.909 77.042 213.111 C 65.993 195.019 50.625 168.699 46.015 143.674 C 41.085 116.913 57.584 40.136 57.584 40.136 Z"/>
    </g>
    <g transform="matrix(-1, 0, 0, 1, 520.937561, 0)" style="">
      <path style="fill: rgb(255, 255, 255); stroke: rgb(255, 255, 255);" d="M 69.756 19.157 C 71.785 17.843 68.011 93.802 95.676 115.351 C 124.355 137.689 141.777 137.686 144.197 225.714 C 146.05 293.16 198.199 334.964 198.199 334.964 C 198.199 334.964 138.325 284.791 129.695 221.239 C 116.136 121.386 98.671 161.915 78.27 119.742 C 57.093 75.965 69.756 19.157 69.756 19.157 Z"/>
      <path style="fill: rgb(255, 255, 255); stroke: rgb(255, 255, 255);" d="M 97.446 180.844 C 97.446 180.844 127.381 218.412 120.4 254.601 C 103.661 341.374 171.322 364.223 192.165 391.717 C 223.883 433.556 240.473 508.415 240.473 508.415 C 240.473 508.415 199.904 409.257 163.994 388.248 C 133.951 370.671 93.981 326.338 106.05 265.439 C 113.071 230.012 97.446 180.844 97.446 180.844 Z"/>
      <path style="fill: rgb(255, 255, 255); stroke: rgb(255, 255, 255);" d="M 255.434 275.183 C 255.434 275.183 227.907 291.851 224.651 302.786 C 220.291 317.431 221.178 332.845 212.84 345.179 C 205.564 355.943 186.767 370.321 186.767 370.321 C 186.767 370.321 206.793 363.172 214.655 354.414 C 227.815 339.754 226.128 321.965 231.519 304.93 C 234.863 294.363 255.434 275.183 255.434 275.183 Z"/>
      <path style="fill: rgb(255, 255, 255); stroke: rgb(255, 255, 255);" d="M 57.584 40.136 C 57.584 40.136 59.661 112.632 62.457 136.953 C 65.699 165.144 87.624 193.85 93.654 214.279 C 99.911 235.476 85.18 326.579 85.18 326.579 C 85.18 326.579 90.354 234.909 77.042 213.111 C 65.993 195.019 50.625 168.699 46.015 143.674 C 41.085 116.913 57.584 40.136 57.584 40.136 Z"/>
    </g>
  </g>
</svg>